%
M48
M72
T01C0.0236
T02C0.0240
T03C0.0320
T04C0.0360
T05C0.0394
T06C0.0400
T07C0.0433
T08C0.0440
T09C0.0551
T10C0.0600
T11C0.0720
T12C0.0866
T13C0.1200
T14C0.1575
T15C0.3230
%
T01
X78380Y20147
T02
X65380Y15934
X65380Y14556
X48380Y13934
X48380Y12556
X106167Y17147
X104789Y17147
X108789Y17647
X110167Y17647
X106380Y18647
X98880Y21647
T03
X96880Y22147
X95880Y22147
X94880Y23647
X102380Y24147
X103380Y24147
X94880Y25647
X94880Y27147
X94880Y28147
X82880Y24647
X85880Y23147
X86880Y23147
X82880Y22647
X76880Y22147
X74880Y22147
X76380Y20647
X75180Y20247
X80380Y20647
X81380Y19147
X77680Y18347
X76680Y18347
X73380Y18147
X72380Y18147
X71380Y18147
X63880Y18147
X62880Y18147
X61880Y18147
X57380Y17147
X56380Y17147
X55380Y17647
X54380Y17647
X53380Y17647
X60080Y16147
X61380Y16147
X62680Y16147
X63980Y16147
X67380Y15647
X69380Y15647
X73080Y15647
X74380Y15647
X76380Y15647
X78380Y15647
X79680Y15647
X75180Y16247
X86380Y16647
X88380Y17147
X89380Y18647
X93380Y18647
X95880Y18147
X96880Y18147
X99880Y18647
X102880Y18647
X103880Y19147
X103380Y20147
X102380Y20147
X105380Y21647
X106380Y21647
X110880Y20147
X112880Y20147
X107880Y19147
X102880Y17147
X101880Y17147
X100880Y17147
X99880Y17147
X98880Y17147
X97880Y17147
X96880Y17147
X95880Y17147
X104880Y15647
X108880Y15647
X110880Y15647
X111880Y15647
X112880Y15647
X113880Y15647
X114880Y15647
X115880Y15647
X110380Y13147
X112380Y12647
X113380Y12647
X114380Y12647
X115380Y12647
X116880Y11647
X118880Y11647
X105880Y9647
X112380Y8647
X113380Y8647
X114380Y8647
X115380Y8647
X105880Y7647
X103880Y7647
X102880Y7647
X101880Y7647
X98880Y7647
X97880Y7647
X96880Y7647
X95880Y7647
X94880Y7647
X99880Y9147
X99880Y10147
X98880Y11647
X97880Y11647
X96880Y11647
X95880Y11647
X94880Y11647
X88380Y13147
X86380Y13647
X81380Y13147
X79680Y11647
X78380Y11647
X74380Y11647
X73080Y11647
X71380Y12647
X65380Y12647
X63980Y12147
X62680Y12147
X61380Y12147
X60080Y12147
X57180Y11147
X55880Y11147
X52180Y11147
X50880Y10647
X45480Y11147
X44180Y11147
X42880Y11147
X53880Y14147
X50880Y14647
X52180Y15147
X55880Y15147
X57180Y15147
X45480Y15147
X44180Y15147
X42880Y15147
X42880Y18147
X41880Y18147
X40880Y18147
X43880Y18147
X44880Y18147
X45880Y18147
X52380Y19647
X54380Y20147
X59380Y20147
X60380Y20147
X61380Y20147
X59380Y23147
X55380Y23147
X54380Y24147
X52380Y25647
X45380Y28647
X41380Y28647
X36880Y31647
X33880Y31647
X38380Y32147
X39380Y32147
X70380Y29147
X71380Y29147
X72880Y29147
X72880Y25147
X95880Y14147
X96880Y14147
X97880Y14147
X98880Y14147
X99880Y14147
X100880Y14147
X101880Y14147
X102880Y14147
X104380Y13147
X103880Y11647
X102880Y11647
X101880Y11647
X109380Y6647
X115380Y6647
X53880Y8147
X56380Y9147
X62380Y9147
X76380Y9647
T04
X49880Y16147
X46880Y16147
T05
X65494Y19261
X66380Y19261
X67266Y19261
X67266Y21033
X66380Y21033
X65494Y21033
X117494Y19533
X118380Y19533
X119266Y19533
X119266Y17761
X118380Y17761
X117494Y17761
T06
X124880Y7347
X134880Y7347
X144880Y7347
X154880Y7347
X159880Y17147
X154880Y26447
X144880Y26447
X134880Y26447
X124880Y26447
X111380Y24147
X110380Y24147
X109380Y24147
X108380Y24147
X104880Y26647
X104880Y27647
X104880Y28647
X100880Y27647
X97880Y27647
X84880Y26147
X83880Y26147
X82880Y26147
X79380Y27647
X76380Y27647
X81880Y31647
X84380Y31647
X91380Y22647
X92380Y22647
X93380Y22647
X89380Y21147
X86380Y20147
X84380Y20647
X91380Y15147
X91380Y12147
X89380Y8647
X36880Y7347
X26880Y7347
X16880Y7347
X6880Y7347
X1880Y17147
X6880Y26447
X16880Y26447
X26880Y26447
X36880Y26447
T07
X67864Y3647
X66880Y3647
X65896Y3647
X78896Y3647
X79880Y3647
X80864Y3647
X92896Y3647
X93880Y3647
X94864Y3647
X103896Y3647
X104880Y3647
X105864Y3647
T08
X87130Y25247
X91130Y25247
X86880Y28647
X82880Y28647
T09
X67266Y20147
X65494Y20147
X117494Y18647
X119266Y18647
T10
X48760Y21267
X47380Y21267
X46000Y21267
X46000Y24027
X48760Y24027
T11
X41880Y25147
X63880Y22147
X89880Y15147
X114880Y20647
X116380Y26447
X58880Y14647
X41380Y9147
X46380Y8647
X86380Y3547
X119880Y4147
X119880Y7647
X50880Y32647
X48880Y32647
X46880Y32647
T12
X64833Y4769
X68967Y4749
X77833Y4769
X81967Y4749
X91833Y4769
X95967Y4749
X102833Y4769
X106967Y4749
T13
X49250Y22647
X45510Y22647
T14
X89805Y30647
X91774Y31828
X91774Y29466
T15
X3380Y5347
X158780Y5447
X158780Y30647
X3380Y30647
M30
